PathFileType	4	(X/Y/Z)	C:/Users/beibeiliu/ov580/test_trc\sequence.9_training_dense_right.trc
DataRate	CameraRate	NumFrames	NumMarkers	Units	OrigDataRate	OrigDataStartFrame	OrigNumFrames
120	120	20	19	mm	120	200	398
Frame#	Time	ThumbCMC			ThumbMCP			ThumbIP			ThumbTip			IndexMCP			IndexPIP			IndexTip			MiddleMCP			MiddlePIP			MiddleTip			RingMCP			RingPIP			RingTip			PinkyMCP			PinkyPIP			PinkyTip			BackHand1			BackHand2			BackHand3	
		X0	Y0	Z0	X1	Y1	Z1	X2	Y2	Z2	X3	Y3	Z3	X4	Y4	Z4	X5	Y5	Z5	X6	Y6	Z6	X7	Y7	Z7	X8	Y8	Z8	X9	Y9	Z9	X10	Y10	Z10	X11	Y11	Z11	X12	Y12	Z12	X13	Y13	Z13	X14	Y14	Z14	X15	Y15	Z15	X16	Y16	Z16	X17	Y17	Z17	X18	Y18	Z18	
199	1.65833	176.879	-11.4888	-23.0467	153.262	-7.43558	-38.0506	141.008	-0.982236	-52.5789	127.944	7.67417	-55.9264	185.175	-5.3188	-86.7752	179.283	2.00412	-102.303	180.515	6.59309	-122.194	201.426	-22.0576	-93.4501	198.487	-18.9408	-112.217	204.401	-19.3351	-139.284	210.976	-42.2749	-84.5686	211.932	-40.0921	-106.381	217.767	-41.9196	-125.959	218.484	-61.5862	-67.5112	226.548	-65.5628	-86.478	235.577	-65.1812	-98.21	217.877	-38.7508	-45.5436	220.746	-34.115	-16.6913	205.023	-10.0099	-30.6207	
200	1.66667	178.608	-9.65357	-19.0708	157.648	-7.34524	-32.4086	143.276	4.29251	-49.3537	131.957	14.5343	-51.6405	185.849	-3.12093	-82.3085	182.229	1.45748	-103.996	182.106	6.9632	-122.276	200.829	-25.3325	-93.145	199.772	-23.7687	-112.468	203.268	-23.0372	-136.871	209.444	-45.3446	-84.2359	210.517	-47.5756	-105.987	215.075	-48.0776	-126.681	215.615	-65.6567	-66.4633	220.062	-69.3806	-86.1488	230.926	-72.1248	-97.2953	215.615	-35.7593	-42.8199	222.093	-38.4095	-14.0691	208.335	-14.1342	-30.8006	
201	1.675	180.815	-5.05129	-14.7121	159.358	-0.206083	-32.9372	148.785	8.93311	-43.369	137.794	21.1239	-48.6982	187.892	-2.6391	-80.1859	184.761	0.833205	-103.142	183.341	7.78481	-120.837	200.157	-27.7129	-90.3145	197.338	-21.4483	-111.633	201.129	-23.538	-138.529	206.024	-48.6466	-80.316	207.183	-51.847	-101.223	208.682	-48.6697	-122.693	209.126	-66.6892	-64.5867	213.608	-73.484	-79.683	223.018	-78.5605	-95.7479	215.319	-43.2322	-41.5072	220.54	-37.2737	-15.9743	207.13	-13.3846	-26.6418	
202	1.68333	183.517	-4.20305	-16.8587	163.194	1.49847	-29.9071	152.103	16.2394	-43.6376	144.662	27.4209	-50.0594	189.67	-0.332295	-82.4989	185.507	1.06798	-102.13	185.908	6.02736	-121.629	197.937	-25.0761	-86.4685	197.089	-26.0242	-111.795	196.686	-24.0367	-133.386	202.649	-46.3699	-81.6069	202.919	-52.3989	-102.917	204.046	-53.7183	-119.542	205.541	-69.7426	-64.1484	207.698	-73.9771	-80.3685	217.336	-82.8992	-92.1437	215.378	-42.9187	-37.6353	218.887	-43.2362	-15.1065	210.151	-16.0602	-27.2087	
203	1.69167	186.15	1.12322	-16.4877	167.195	8.31509	-26.8785	157.291	20.0259	-42.2946	150.846	35.2779	-45.7454	190.44	-1.69876	-82.3069	186.554	2.91646	-99.7023	186.66	9.14575	-122.403	197.196	-27.5965	-89.9532	193.62	-26.7718	-109.65	193.938	-29.5279	-134.306	199.399	-50.9275	-79.4499	198.189	-53.058	-102.773	198.654	-57.5616	-121.312	200.725	-69.9187	-66.015	200.872	-76.6718	-81.0605	208.269	-84.2488	-90.5446	212.594	-44.0884	-38.0283	219.417	-46.358	-10.3807	213.173	-16.1266	-28.6437	
204	1.7	189.084	-1.45229	-11.8577	170.434	7.59869	-27.3788	162.802	24.9663	-38.5186	157.103	37.3142	-41.4904	191.934	-5.47706	-82.5881	186.304	1.83707	-100.283	187.024	4.06948	-122.258	194.826	-30.8368	-87.4927	190.814	-31.2606	-108.536	189.808	-28.0935	-132.556	195.508	-50.3065	-80.9063	192.834	-56.9184	-101.068	192.346	-54.9696	-120.109	194.667	-69.9239	-61.7204	194.197	-81.321	-76.2298	200.356	-86.0223	-89.3177	208.023	-46.6702	-35.6918	216.214	-46.8734	-12.4119	212.42	-19.1841	-26.1274	
205	1.70833	190.107	-0.910407	-12.1091	174.01	12.9974	-21.6938	166.349	26.945	-35.4217	162.019	40.3097	-42.569	190.1	-5.79572	-80.8815	185.067	0.679515	-100.322	184.514	3.84759	-115.235	191.918	-31.9038	-82.3536	186.717	-31.6227	-105.405	184.748	-32.3276	-133.594	191.602	-53.5618	-78.3891	187.442	-53.5244	-95.8723	184.713	-54.2182	-115.978	188.806	-67.4715	-58.1692	188.178	-78.1414	-74.0356	194.031	-86.6713	-89.2828	207.432	-50.2291	-35.7535	215.158	-45.0721	-9.28176	212.975	-21.9092	-26.1357	
206	1.71667	192.445	-0.510164	-11.5296	174.982	14.1832	-23.5944	168.29	31.1665	-36.3706	165.947	43.7999	-39.6679	189.993	-6.96428	-78.6974	183.904	-0.135873	-96.0651	182.716	3.36651	-116.91	190.303	-31.6345	-80.1338	184.112	-32.797	-103.085	180.42	-30.8856	-129.073	187.413	-52.2874	-72.4453	181.839	-55.463	-96.9571	179.676	-57.8994	-117.08	184.089	-68.5402	-56.7644	182.495	-76.7181	-75.2194	186.222	-85.7296	-86.02	204.273	-46.7637	-34.1271	211.016	-49.6647	-10.9531	210.027	-24.301	-25.1401	
207	1.725	193.245	-1.16818	-7.28593	176.713	12.322	-23.3304	172.57	32.4159	-34.2133	169.866	44.4135	-36.8875	189.678	-4.65223	-76.7073	183.934	-1.98224	-95.6894	180.573	3.51558	-113.35	186.706	-30.8034	-83.7254	181.782	-32.1076	-101.263	177.745	-30.1131	-128.308	183.933	-51.3287	-70.2859	177.898	-54.9226	-96.232	175.809	-56.4338	-111.477	180.094	-67.2417	-54.7159	177.444	-80.4047	-71.2575	181.597	-85.4564	-84.6833	203.128	-48.3892	-32.3996	211.526	-52.1144	-5.91808	211.959	-24.626	-21.3744	
208	1.73333	193.701	-0.647622	-8.28089	178.615	13.6631	-19.6656	174.284	30.4453	-35.219	175.064	47.1161	-38.3536	190.359	-4.69537	-73.9781	184.256	0.195759	-91.0648	181.529	5.0231	-116.966	186.428	-29.9466	-82.3437	180.743	-33.7982	-101.209	176.336	-33.8113	-124.975	183.334	-49.5944	-70.9996	176.919	-52.131	-89.5282	173.682	-57.4246	-110.416	178.289	-69.8268	-58.313	175.138	-78.8815	-66.9633	178.999	-85.449	-82.4775	200.526	-47.5014	-31.332	210.573	-50.122	-9.22557	209.899	-25.8913	-25.1467	
209	1.74167	194.68	0.55766	-7.16011	179.157	13.2028	-22.4369	175.415	28.2566	-34.1377	176.245	46.3185	-38.7107	190.198	-6.19521	-72.1352	182.97	-2.19461	-93.7559	181.002	1.64785	-112.32	185.824	-33.0809	-78.9501	179.589	-34.5533	-101.83	175.077	-31.3044	-125.733	182.419	-51.0339	-71.5296	174.903	-57.3911	-94.9115	172.337	-60.757	-114.196	177.749	-69.437	-57.1058	174.699	-79.1234	-72.2975	178.144	-87.4972	-82.6864	198.932	-52.4496	-33.0234	207.633	-53.0144	-7.75884	208.834	-28.551	-23.8131	
210	1.75	195.631	-5.71083	-7.07068	180.397	10.3678	-25.0116	176.356	27.7377	-37.0768	176.402	41.4057	-36.6126	190.218	-6.38399	-75.5107	184.334	-4.13049	-92.4582	182.491	4.27589	-116.191	184.841	-34.3567	-83.5	180.329	-30.2564	-102.889	174.864	-33.1473	-124.253	182.062	-52.6531	-69.4185	175.123	-54.2506	-93.1855	172.856	-57.0348	-111.594	177.206	-69.6647	-52.4479	173.086	-78.0078	-70.0279	175.18	-87.6223	-83.8654	199.652	-49.3938	-31.1304	210.691	-52.4262	-5.90034	211.521	-27.5588	-22.2353	
211	1.75833	197.771	-1.20281	-8.2037	184.787	13.7421	-18.6027	182.015	31.1497	-32.8924	181.679	45.3276	-35.7571	191.411	-6.3986	-76.9494	186.77	-2.19158	-94.3341	183.694	3.91295	-117.103	187.944	-32.2036	-79.8624	180.542	-32.5305	-100.555	175.659	-33.5887	-124.674	181.63	-50.9473	-73.3332	175.589	-57.91	-92.651	171.569	-60.8828	-111.524	176.588	-71.1659	-55.1708	173.064	-75.2281	-67.3427	174.793	-89.8537	-83.894	200.644	-50.0961	-33.5874	207.722	-54.8654	-5.82116	212.355	-29.8139	-24.5704	
212	1.76667	200.54	-1.08286	-10.1591	186.695	10.7191	-21.2569	186.382	31.9759	-33.0596	186.344	46.8261	-38.9355	194.726	-7.05287	-76.5085	188.578	-3.06461	-92.7739	186.687	2.53125	-116.714	188.44	-34.5334	-83.4321	182.642	-31.5625	-100.577	176.328	-35.2703	-124.739	181.522	-56.0268	-73.802	176.686	-55.7722	-94.0979	172.688	-59.6824	-112.614	175.854	-71.9269	-56.3422	173.039	-78.5861	-70.5438	173.312	-89.8892	-84.2253	202.105	-51.7839	-31.8871	208.522	-51.996	-8.76732	213.693	-28.4864	-23.5149	
213	1.775	203.487	-3.37	-8.82082	193.192	15.4534	-24.9612	191.139	32.2586	-37.4184	193.472	48.1642	-44.9501	197.66	-8.21998	-73.8502	191.83	-3.37891	-94.2719	189.987	1.71057	-118.585	190.636	-34.0009	-80.0183	183.914	-33.35	-102.89	175.31	-37.2261	-129.09	184.077	-51.135	-74.2933	177.163	-55.3133	-91.8067	174.006	-56.8924	-115.381	176.654	-69.0379	-54.9771	171.562	-78.8747	-69.3167	173.509	-85.7704	-84.0243	202.822	-53.2777	-29.3718	209.586	-55.1087	-5.24469	216.518	-28.908	-20.0632	
214	1.78333	207.823	-2.08469	-7.89936	197.168	12.0077	-23.1497	198.796	32.7679	-39.0077	200.109	46.1699	-43.0386	199.741	-8.63588	-76.5747	193.356	-6.19833	-95.866	191.597	0.159466	-118.092	191.51	-31.99	-81.926	183.689	-35.3538	-101.147	178.166	-33.2708	-127.329	184.77	-51.1118	-74.302	178.197	-55.6886	-93.9192	174.021	-58.6587	-111.276	175.875	-70.6933	-54.2311	171.792	-77.5129	-71.278	172.398	-87.2358	-84.3766	201.693	-55.0584	-33.6551	210.43	-57.8464	-8.68487	215.991	-32.0182	-21.1184	
215	1.79167	210.449	-2.6063	-10.8782	202.831	14.149	-28.0923	203.865	29.6108	-40.0938	207.846	45.0641	-45.9382	199.866	-11.2713	-79.5642	195.484	-5.88165	-98.9989	192.038	-2.1517	-118.932	191.86	-31.0368	-84.5763	184.986	-33.8102	-102.311	177.183	-36.475	-128.087	183.076	-54.2467	-72.7078	178.273	-54.3874	-95.3492	174.144	-56.5213	-110.355	177.201	-69.3597	-55.5076	171.199	-78.2523	-66.2948	172.183	-87.0819	-79.4009	204.081	-52.2784	-31.5552	212.422	-54.3343	-8.26872	220.353	-28.8621	-25.1071	
216	1.8	215.498	-0.49818	-12.5868	206.866	13.1921	-29.0944	208.171	28.6317	-46.4948	214.87	44.3033	-51.7643	201.92	-10.1269	-79.3598	194.885	-7.22633	-98.9136	191.142	-5.73961	-120.63	193.171	-32.0587	-81.3074	182.222	-34.9384	-106.12	177.913	-33.1582	-127.724	184.683	-51.9419	-74.994	177.096	-55.612	-91.3108	171.392	-57.4581	-113.926	176.599	-68.5036	-54.1592	170.082	-76.0501	-70.0358	166.76	-91.1765	-81.4051	206.423	-51.3088	-35.5049	214.035	-55.8063	-11.6135	220.417	-31.0114	-23.2015	
217	1.80833	219.294	-1.95296	-13.1574	214.247	14.7645	-29.3882	216.22	29.8696	-48.7995	217.511	40.4496	-55.0131	204.187	-8.57729	-80.6465	195.511	-4.75089	-100.431	189.349	-4.02151	-121.987	190.247	-34.0992	-84.9597	181.145	-34.9465	-104.178	172.944	-35.8451	-128.976	183.479	-51.8644	-74.3687	173.542	-56.8221	-91.7289	168.656	-56.5868	-111.274	175.951	-68.1416	-52.1563	167.854	-75.6079	-65.08	165.936	-85.4163	-79.3434	205.549	-51.9348	-32.4188	216.492	-55.21	-13.0285	223.01	-30.529	-27.1094	
218	1.81667	225.777	-3.23523	-14.3945	220.426	14.0646	-33.1024	223.313	28.8324	-51.4919	227.868	40.5019	-56.7011	204.164	-8.16223	-80.3928	193.843	-2.97047	-100.042	185.482	-3.48621	-121.721	191.56	-29.7533	-83.2701	178.42	-31.7375	-103.271	168.921	-31.8142	-126.163	180.698	-49.1978	-72.9001	171.059	-53.8068	-86.3813	161.662	-53.6544	-106.23	176.517	-62.7836	-51.4186	165.615	-71.8308	-59.0234	157.977	-81.4273	-78.6599	210.468	-51.6536	-32.1623	221.809	-52.7188	-11.7091	226.069	-33.0601	-28.9053	
